Coordinates
version=1
nRows=29
nColumns=30
inDegrees=yes

Units are S.I. units (second, meters, Newtons, ...)
Angles are in degrees.

endheader
time	floatyaw	floatroll	floatpitch	floatx	floaty	floatz	pro_sup_l	deviation_l	flexion_l	cmc_flexion_l	cmc_abduction_l	mp_flexion_l	ip_flexion_l	2mcp_flexion_l	2mcp_abduction_l	2pm_flexion_l	2md_flexion_l	3mcp_flexion_l	3mcp_abduction_l	3pm_flexion_l	3md_flexion_l	4mcp_flexion_l	4mcp_abduction_l	4pm_flexion_l	4md_flexion_l	5mcp_flexion_l	5mcp_abduction_l	5pm_flexion_l	5md_flexion_l
-1.495000	-160.147433	-5.066637	-73.570646	0.082091	-0.182293	-0.016420	101.407651	5.520770	-0.707916	15.547124	10.253300	-25.531848	-42.002953	29.547671	6.592523	43.343092	29.526124	25.035430	4.135814	44.245076	29.307530	13.867524	-4.073962	51.739882	35.881065	1.041381	-8.551792	61.602418	43.310564
-1.485000	-160.147433	-5.066637	-73.570646	0.082090	-0.182289	-0.016423	101.419295	5.525559	-0.708867	15.542315	10.247689	-25.563262	-42.034312	29.566156	6.591560	43.335925	29.516858	25.036463	4.135998	44.241249	29.308104	13.868084	-4.076017	51.743349	35.884126	1.032872	-8.553584	61.615053	43.313637
-1.475000	-160.147433	-5.066637	-73.570646	0.082083	-0.182289	-0.016427	101.421843	5.525103	-0.711823	15.535871	10.271998	-25.593316	-42.061724	29.576043	6.592694	43.353283	29.525868	25.033056	4.137106	44.251966	29.317025	13.867570	-4.078484	51.757809	35.891191	1.028516	-8.556184	61.628779	43.317695
-1.465000	-160.147433	-5.066637	-73.570646	0.082073	-0.182293	-0.016430	101.415903	5.520413	-0.715831	15.525078	10.323940	-25.615836	-42.081964	29.576384	6.597115	43.388650	29.548807	25.026097	4.140348	44.269711	29.328814	13.866782	-4.081094	51.779071	35.900603	1.027699	-8.560983	61.646019	43.324370
-1.455000	-160.147433	-5.066637	-73.570646	0.082062	-0.182299	-0.016431	101.405589	5.514290	-0.719537	15.508803	10.392103	-25.626249	-42.093477	29.569235	6.605314	43.428574	29.576422	25.016876	4.146205	44.286570	29.338593	13.866101	-4.083720	51.801880	35.910584	1.029692	-8.568693	61.666470	43.333430
-1.445000	-160.147433	-5.066637	-73.570646	0.082053	-0.182304	-0.016430	101.396588	5.510076	-0.722074	15.487486	10.462123	-25.622952	-42.096841	29.559438	6.616484	43.458796	29.598772	25.006918	4.154024	44.298542	29.344609	13.865637	-4.086209	51.822049	35.919929	1.034485	-8.579020	61.686925	43.342646
-1.435000	-160.147433	-5.066637	-73.570646	0.082046	-0.182307	-0.016426	101.393449	5.510140	-0.723278	15.462470	10.522871	-25.607791	-42.094111	29.552875	6.628434	43.470286	29.609396	24.997556	4.162164	44.306736	29.348574	13.865413	-4.088242	51.837231	35.927999	1.042544	-8.590558	61.702405	43.348641
-1.425000	-160.147433	-5.066637	-73.570646	0.082042	-0.182306	-0.016420	101.397824	5.514998	-0.723236	15.435219	10.569215	-25.585439	-42.087419	29.553762	6.638360	43.462264	29.607444	24.989464	4.168673	44.315026	29.353770	13.865358	-4.089378	51.846514	35.934298	1.053730	-8.601054	61.708196	43.348457
-1.415000	-160.147433	-5.066637	-73.570646	0.082042	-0.182302	-0.016413	101.408418	5.523435	-0.721738	15.406764	10.601030	-25.561810	-42.077716	29.562426	6.644124	43.441422	29.597147	24.982532	4.172162	44.326325	29.362391	13.865130	-4.089218	51.849771	35.938235	1.066268	-8.608039	61.702001	43.341161
-1.405000	-160.147433	-5.066637	-73.570646	0.082044	-0.182295	-0.016408	101.422301	5.533324	-0.718172	15.377544	10.620585	-25.542060	-42.064431	29.574983	6.645206	43.418348	29.585327	24.976085	4.172401	44.340396	29.374032	13.864014	-4.087608	51.847466	35.939343	1.076718	-8.609619	61.685171	43.328670
-1.395000	-160.147433	-5.066637	-73.570646	0.082048	-0.182285	-0.016404	101.436619	5.542646	-0.711931	15.347601	10.630654	-25.528980	-42.046101	29.585365	6.642724	43.402996	29.578291	24.969166	4.170357	44.354619	29.386275	13.861129	-4.084824	51.840902	35.937741	1.081277	-8.605100	61.662313	43.315147
-1.385000	-160.147433	-5.066637	-73.570646	0.082051	-0.182274	-0.016402	101.449837	5.550319	-0.702999	15.316951	10.634225	-25.522433	-42.021381	29.588613	6.638654	43.401070	29.579516	24.960648	4.167674	44.366715	29.396794	13.855924	-4.081650	51.832440	35.934404	1.077842	-8.595268	61.639406	43.305081
-1.375000	-160.147433	-5.066637	-73.570646	0.082054	-0.182263	-0.016401	101.462047	5.556593	-0.692281	15.285904	10.635209	-25.520096	-41.989931	29.583448	6.634904	43.412719	29.589009	24.949341	4.165904	44.377075	29.405376	13.848647	-4.079239	51.825187	35.930954	1.067549	-8.582237	61.621394	43.301061
-1.365000	-160.147433	-5.066637	-73.570646	0.082055	-0.182250	-0.016400	101.474359	5.562811	-0.681444	15.255277	10.638830	-25.519136	-41.953056	29.572566	6.632759	43.433766	29.604314	24.934409	4.165892	44.388788	29.414303	13.840487	-4.078740	51.821998	35.929019	1.054604	-8.568862	61.610531	43.302569
-1.355000	-160.147433	-5.066637	-73.570646	0.082055	-0.182238	-0.016398	101.487744	5.570546	-0.672362	15.226465	10.650599	-25.517931	-41.914117	29.560729	6.632821	43.458342	29.622170	24.916136	4.167573	44.405285	29.426686	13.833299	-4.080835	51.824237	35.929483	1.044305	-8.557775	61.606183	43.306552
-1.345000	-160.147433	-5.066637	-73.570646	0.082054	-0.182227	-0.016394	101.501849	5.580398	-0.666478	15.201107	10.673915	-25.516884	-41.878453	29.552271	6.635164	43.481174	29.639594	24.896559	4.170153	44.427302	29.443800	13.829044	-4.085413	51.831068	35.932099	1.040415	-8.550434	61.605902	43.309353
-1.335000	-160.147433	-5.066637	-73.570646	0.082053	-0.182218	-0.016389	101.514467	5.591137	-0.664332	15.180168	10.707709	-25.517862	-41.852223	29.549715	6.639459	43.498504	29.653984	24.879323	4.172535	44.451389	29.463291	13.829141	-4.091552	51.839800	35.935676	1.043503	-8.546685	61.606963	43.308760
-1.325000	-160.147433	-5.066637	-73.570646	0.082054	-0.182212	-0.016383	101.522217	5.599924	-0.665309	15.162808	10.746058	-25.522598	-41.839923	29.553758	6.644990	43.507988	29.662948	24.868436	4.173796	44.471072	29.479646	13.833866	-4.097789	51.847156	35.938728	1.051074	-8.545106	61.607565	43.305002
-1.315000	-160.147433	-5.066637	-73.570646	0.082056	-0.182211	-0.016378	101.522369	5.603731	-0.667668	15.145942	10.780542	-25.530966	-41.841303	29.563559	6.650743	43.508697	29.664849	24.866382	4.173548	44.480024	29.486851	13.841952	-4.102573	51.850769	35.940197	1.059129	-8.543960	61.607328	43.300324
-1.305000	-160.147433	-5.066637	-73.570646	0.082059	-0.182213	-0.016377	101.514770	5.601191	-0.669035	15.125127	10.804142	-25.540225	-41.849675	29.576590	6.655726	43.501593	29.660035	24.872743	4.172015	44.475338	29.481695	13.850659	-4.104773	51.850152	35.939853	1.064049	-8.542156	61.607120	43.297615
-1.295000	-160.147433	-5.066637	-73.570646	0.082063	-0.182216	-0.016378	101.502393	5.593570	-0.667339	15.096544	10.814466	-25.545991	-41.853740	29.588639	6.659401	43.489740	29.651517	24.884309	4.169789	44.459014	29.465716	13.856516	-4.104077	51.846645	35.938203	1.063773	-8.539702	61.608505	43.298995
-1.285000	-160.147433	-5.066637	-73.570646	0.082068	-0.182217	-0.016381	101.489867	5.584101	-0.661830	15.059077	10.814609	-25.544848	-41.843158	29.595011	6.661854	43.477376	29.643967	24.896674	4.167424	44.436937	29.444627	13.856590	-4.101108	51.842485	35.936065	1.057904	-8.537413	61.613080	43.305098
-1.275000	-160.147433	-5.066637	-73.570646	0.082073	-0.182215	-0.016385	101.480912	5.576144	-0.653519	15.015347	10.811415	-25.537181	-41.815130	29.592931	6.663475	43.468091	29.641312	24.906340	4.165153	44.416049	29.425608	13.849779	-4.097191	51.839630	35.934113	1.047115	-8.536160	61.621933	43.315151
-1.265000	-160.147433	-5.066637	-73.570646	0.082076	-0.182212	-0.016388	101.476527	5.571475	-0.644742	14.971091	10.812225	-25.528131	-41.777716	29.583694	6.664448	43.463345	29.644485	24.912149	4.162906	44.401349	29.413974	13.837564	-4.093845	51.839041	35.932665	1.032638	-8.536209	61.635372	43.327544
-1.255000	-160.147433	-5.066637	-73.570646	0.082079	-0.182210	-0.016391	101.475111	5.569732	-0.638101	14.933002	10.821848	-25.525429	-41.747094	29.572761	6.664576	43.462404	29.650874	24.915458	4.160560	44.394316	29.410987	13.823713	-4.092233	51.840775	35.931800	1.016238	-8.537118	61.652990	43.340440
-1.245000	-160.147433	-5.066637	-73.570646	0.082079	-0.182210	-0.016393	101.474160	5.569158	-0.635387	14.905918	10.841271	-25.535053	-41.739721	29.567207	6.663648	43.463689	29.655909	24.919076	4.158208	44.393370	29.413833	13.812769	-4.092745	51.844637	35.931667	1.000379	-8.538213	61.673963	43.352241
-1.235000	-160.147433	-5.066637	-73.570646	0.082076	-0.182212	-0.016397	101.472167	5.567963	-0.636939	14.890654	10.868572	-25.557520	-41.763704	29.571703	6.661920	43.466592	29.655880	24.925415	4.156243	44.395809	29.417640	13.807731	-4.094874	51.850914	35.932747	0.987891	-8.539178	61.697233	43.361818
-1.225000	-160.147433	-5.066637	-73.570646	0.082072	-0.182215	-0.016400	101.469344	5.565406	-0.641568	14.883564	10.901260	-25.587426	-41.814411	29.585486	6.660163	43.472504	29.650355	24.934712	4.155156	44.399923	29.418361	13.808059	-4.097466	51.860654	35.935820	0.980910	-8.540312	61.721324	43.368513
-1.215000	-160.147433	-5.066637	-73.570646	0.082067	-0.182218	-0.016403	101.466823	5.561995	-0.647010	14.878040	10.938436	-25.616485	-41.876738	29.602375	6.659231	43.484364	29.642762	24.944370	4.155195	44.406103	29.414949	13.809479	-4.099230	51.875235	35.941603	0.979754	-8.542333	61.743922	43.371969
